<svg width="37" height="31" viewBox="0 0 37 31" fill="none" xmlns="http://www.w3.org/2000/svg">
<path d="M9.02461 17.6605L13.0875 29.0815C13.0875 29.0815 13.5954 30.1509 14.1404 30.1509C14.6853 30.1509 22.7741 21.6047 22.7741 21.6047L31.7644 3.95868L9.16727 14.7132L9.02176 17.6605H9.02461Z" fill="#C1BFBF"/>
<path d="M14.4086 20.5903L13.6296 29.0091C13.6296 29.0091 13.3044 31.5883 15.8409 29.0091C18.3773 26.4298 20.8111 24.4418 20.8111 24.4418" fill="#494646"/>
<path d="M9.09612 18.0692L0.742016 15.3045C0.742016 15.3045 -0.256596 14.8929 0.0658129 13.9598C0.131436 13.7685 0.265535 13.6033 0.66498 13.3222C2.51384 12.0123 34.9316 0.176847 34.9316 0.176847C34.9316 0.176847 35.8475 -0.136137 36.3868 0.0725192C36.6578 0.156561 36.8632 0.385504 36.9232 0.669509C36.9802 0.91584 37.0059 1.16797 36.9945 1.4172C36.9945 1.63455 36.966 1.83741 36.946 2.15329C36.7491 5.39036 30.8402 29.5366 30.8402 29.5366C30.8402 29.5366 30.4864 30.9508 29.2196 30.9972C28.5919 31.0175 27.9813 30.7769 27.5276 30.3335C25.0425 28.1629 16.4516 22.2973 14.5542 21.0077C14.4687 20.9469 14.4116 20.8512 14.3973 20.7469C14.3716 20.6107 14.5172 20.4426 14.5172 20.4426C14.5172 20.4426 29.4764 6.9379 29.873 5.52077C29.9043 5.41065 29.7874 5.35559 29.6304 5.40485C28.6375 5.7758 11.4158 16.823 9.51268 18.0431C9.37573 18.0865 9.23022 18.0952 9.09041 18.0692H9.09612Z" fill="white"/>
</svg>
