<svg width="37" height="31" viewBox="0 0 37 31" fill="none" xmlns="http://www.w3.org/2000/svg">
<g clip-path="url(#clip0_8_82)">
<path d="M9.0246 17.6605L13.0875 29.0815C13.0875 29.0815 13.5954 30.1509 14.1403 30.1509C14.6853 30.1509 22.7741 21.6047 22.7741 21.6047L31.7644 3.95868L9.16726 14.7132L9.02174 17.6605H9.0246Z" fill="#EF5A59"/>
<path d="M14.4085 20.5904L13.6296 29.0091C13.6296 29.0091 13.3044 31.5883 15.8408 29.0091C18.3773 26.4298 20.8111 24.4418 20.8111 24.4418" fill="#B11F24"/>
<path d="M9.09613 18.0692L0.742031 15.3045C0.742031 15.3045 -0.256581 14.8929 0.0658281 13.9598C0.131451 13.7685 0.265551 13.6033 0.664995 13.3222C2.51385 12.0123 34.9317 0.176855 34.9317 0.176855C34.9317 0.176855 35.8475 -0.13613 36.3868 0.0725268C36.6578 0.156569 36.8633 0.385512 36.9232 0.669517C36.9802 0.915847 37.0059 1.16797 36.9945 1.4172C36.9945 1.63455 36.966 1.83741 36.946 2.1533C36.7491 5.39037 30.8402 29.5366 30.8402 29.5366C30.8402 29.5366 30.4864 30.9508 29.2196 30.9972C28.5919 31.0175 27.9813 30.7769 27.5277 30.3335C25.0425 28.1629 16.4516 22.2974 14.5543 21.0077C14.4687 20.9469 14.4116 20.8512 14.3973 20.7469C14.3717 20.6107 14.5172 20.4426 14.5172 20.4426C14.5172 20.4426 29.4764 6.93791 29.873 5.52078C29.9044 5.41066 29.7874 5.3556 29.6304 5.40486C28.6375 5.77581 11.4158 16.823 9.5127 18.0431C9.37575 18.0865 9.23023 18.0952 9.09043 18.0692H9.09613Z" fill="#ED1C24"/>
</g>
<defs>
<clipPath id="clip0_8_82">
<rect width="37" height="31" fill="white"/>
</clipPath>
</defs>
</svg>
